<?xml version="1.0" encoding="UTF-8" standalone="no"?>
<!-- Created with Inkscape (http://www.inkscape.org/) -->

<svg
   xmlns:dc="http://purl.org/dc/elements/1.1/"
   xmlns:cc="http://creativecommons.org/ns#"
   xmlns:rdf="http://www.w3.org/1999/02/22-rdf-syntax-ns#"
   xmlns:svg="http://www.w3.org/2000/svg"
   xmlns="http://www.w3.org/2000/svg"
   xmlns:sodipodi="http://sodipodi.sourceforge.net/DTD/sodipodi-0.dtd"
   xmlns:inkscape="http://www.inkscape.org/namespaces/inkscape"
   id="svg8"
   version="1.1"
   viewBox="0 0 161.91635 28.67462"
   height="28.67462mm"
   width="161.91635mm"
   inkscape:version="0.92+devel (b071ae7561, 2017-11-25, custom)"
   sodipodi:docname="drawing.svg">
  <style
     id="style52">.start { stroke-dasharray: 1000 5000; transition: 7s linear;  }
</style>
  <defs
     id="defs2" />
  <sodipodi:namedview
     id="base"
     pagecolor="#ffffff"
     bordercolor="#666666"
     borderopacity="1.0"
     inkscape:pageopacity="0"
     inkscape:pageshadow="2"
     inkscape:zoom="1.4"
     inkscape:cx="229.43832"
     inkscape:cy="89.217938"
     inkscape:document-units="mm"
     inkscape:current-layer="layer1"
     showgrid="false"
     inkscape:window-width="1920"
     inkscape:window-height="1027"
     inkscape:window-x="-8"
     inkscape:window-y="-8"
     inkscape:window-maximized="1"
     inkscape:document-rotation="0"
     inkscape:snap-bbox="false"
     inkscape:pagecheckerboard="true"
     fit-margin-top="0"
     fit-margin-left="0"
     fit-margin-right="0"
     fit-margin-bottom="0" />
  <metadata
     id="metadata5">
    <rdf:RDF>
      <cc:Work
         rdf:about="">
        <dc:format>image/svg+xml</dc:format>
        <dc:type
           rdf:resource="http://purl.org/dc/dcmitype/StillImage" />
        <dc:title></dc:title>
      </cc:Work>
    </rdf:RDF>
  </metadata>
  <g
     inkscape:label="Layer 1"
     inkscape:groupmode="layer"
     id="layer1"
     transform="translate(-28.425212,-237.39958)">
    <flowRoot
       xml:space="preserve"
       id="flowRoot3713"
       style="font-style:normal;font-variant:normal;font-weight:normal;font-stretch:normal;font-size:40px;line-height:1.25;font-family:'Freestyle Script';-inkscape-font-specification:'Freestyle Script';letter-spacing:0px;word-spacing:0px;fill:#000000;fill-opacity:1;stroke:none"
       transform="matrix(0.26458333,0,0,0.26458333,-19.79559,182.36492)"><flowRegion
         id="flowRegion3715"
         style="font-style:normal;font-variant:normal;font-weight:normal;font-stretch:normal;font-family:'Freestyle Script';-inkscape-font-specification:'Freestyle Script'"><rect
           id="rect3717"
           width="597.14288"
           height="93.571426"
           x="197.14285"
           y="219.66254"
           style="font-style:normal;font-variant:normal;font-weight:normal;font-stretch:normal;font-family:'Freestyle Script';-inkscape-font-specification:'Freestyle Script'" /></flowRegion><flowPara
         id="flowPara3719"
         style="font-style:normal;font-variant:normal;font-weight:normal;font-stretch:normal;font-size:74.66666412px;font-family:'Lucida Handwriting';-inkscape-font-specification:'Lucida Handwriting'">Hello! I'm Sui</flowPara></flowRoot>    <path
       style="fill:none;stroke:#ffffff;stroke-width:2.5;stroke-linecap:round;stroke-linejoin:round;stroke-miterlimit:4;stroke-opacity:1"
       d="m 32.987442,241.29527 2.834822,1.88988 1.41741,0.47247 1.984375,-0.37797 0.734991,-0.10023 -2.963708,14.38603 -1.362057,2.53414 c 0,0 -0.850446,0.66145 -2.078869,0 -1.228422,-0.66146 -2.929315,-2.55134 -2.929315,-2.55134 0,0 -1.889881,-0.47247 -0.377976,-3.40179 1.511905,-2.92931 3.401785,-3.49628 3.401785,-3.49628 0,0 1.511906,-0.85044 2.267857,-0.94494 0.755952,-0.0945 3.118305,-0.0945 3.118305,-0.0945 h 6.047618 l 1.511904,0.0945 c 0,0 2.645833,-0.0945 3.49628,-1.79539 0.850448,-1.70089 2.267858,-7.27604 2.267858,-7.27604 l -1.41741,-1.98437 c 0,0 -0.283483,0.75595 -1.039437,1.6064 -0.755952,0.85044 -1.889879,1.60639 -2.078869,2.17336 -0.188986,0.56697 -1.322916,2.92932 -1.700891,3.96875 -0.377976,1.03943 -1.228424,5.95313 -1.133928,6.80357 0.09449,0.85045 0.09449,2.74033 0.944938,3.2128 0.850448,0.47247 2.456847,0 2.456847,0 l 1.511903,-1.41741 0.661459,-2.74033 1.984375,0.47247 c 0,0 2.456846,0 3.874256,-0.47247 1.41741,-0.47247 3.307292,-2.55134 3.307292,-2.55134 0,0 0.472472,-0.75595 0,-1.6064 -0.472469,-0.85044 -1.228424,-1.5119 -2.362351,-1.41741 -1.133927,0.0945 -4.157739,2.36235 -4.441219,4.7247 -0.283483,2.36236 0.09449,3.68527 0.661456,4.25224 0.566965,0.56696 2.078871,1.41741 3.496281,0.85044 1.417409,-0.56696 3.685267,-1.6064 5.291666,-3.30729 1.606399,-1.70089 2.834823,-2.26786 3.307292,-3.30729 0.472472,-1.03944 -3.496278,-5.95313 -3.401785,-7.37054 0.09449,-1.41741 0.09449,-3.0238 0.283482,-2.64583 0.188987,0.37798 0.188987,0.75595 1.133928,1.22842 0.944941,0.47247 2.55134,0.56697 2.55134,0.56697 l 1.228423,-0.0945 -2.55134,12.85119 c 0,0 0,0.94494 0.472469,1.32291 0.472472,0.37798 0.944941,1.13393 2.456847,0.18899 1.511903,-0.94494 3.307292,-2.92931 4.630208,-4.25223 1.322917,-1.32292 -1.606399,-8.31548 -1.606399,-8.31548 l -0.09449,-3.21279 c 0,0 -0.377979,-0.0945 0.661458,0.66145 1.039434,0.75596 0.944938,1.03944 2.173362,1.03944 1.228423,0 1.889881,-0.47247 1.889881,-0.47247 l -2.55134,12.18973 c 0,0 -0.09449,1.88988 0.472472,2.45685 0.566962,0.56696 2.173362,0.56696 2.551337,0.18898 0.377976,-0.37797 2.55134,-2.17336 2.929316,-2.64583 0.377976,-0.47247 0.566965,-1.22842 0.566965,-1.22842 l -2.36235,-3.68527 c 0,0 5.669642,-2.17336 6.142111,-2.26786 0.472472,-0.0945 2.173364,1.6064 2.173364,1.6064 0,0 -1.606399,-0.47247 -2.740326,0.28348 -1.13393,0.75596 -2.089351,2.42819 -2.278338,3.27864 -0.188989,0.85044 -0.273006,3.05247 0.199467,3.52494 0.472471,0.47246 1.984375,1.60639 1.984375,1.60639 0,0 2.929316,0.75596 4.346725,-1.22842 1.417413,-1.98437 2.095084,-3.70721 1.811601,-5.12462 -0.283482,-1.41741 -0.110705,-2.5294 -0.772164,-2.90737 -0.661458,-0.37798 -2.078871,-1.13393 -2.078871,-1.13393 l -0.661458,0.37798 0.377976,0.75595 c 0,0 0.188989,0.75595 1.795388,1.13393 1.606399,0.37797 2.740327,1.79538 4.157737,1.5119 1.417412,-0.28348 1.417412,-0.18899 2.645833,-0.75595 1.228423,-0.56697 1.13393,-1.6064 1.13393,-1.6064 l 0.377976,-6.14211 1.795386,-0.0945 c 0,0 0.0945,0.37797 0.0945,0.75595 0,0.37797 -0.0945,3.59077 -0.0945,3.59077 l -1.133928,7.08706 -0.377976,2.73459 -0.09449,1.80112 c 0,0 -1.606399,5.48066 2.173362,2.55134 3.779764,-2.92932 3.874254,-5.48066 5.008184,-10.29985 1.13393,-4.8192 1.79539,-7.74851 1.79539,-7.74851 0,0 0.66146,-0.37798 1.6064,0.28348 0.94494,0.66146 1.13393,1.32292 2.45686,1.41741 1.32291,0.0945 0.28347,0.56696 2.74032,0.28348 2.45685,-0.28348 3.68527,-0.94494 3.68527,-0.94494 l 1.70089,1.03944 -4.15773,-2.55134 -3.40179,16.81994 c 0,0 -2.92933,2.64583 -3.59079,1.70089 -0.66146,-0.94494 -2.07887,-2.64583 -1.88988,-3.40178 0.18899,-0.75596 -0.0945,-1.6064 0.66146,-1.32292 0.75595,0.28348 0.18899,0.94494 1.70089,1.32292 1.51191,0.37797 5.95314,-0.18899 5.95314,-0.18899 h 1.13393 c 1.03943,0 1.22842,0.37797 1.88988,0.75595 0.66146,0.37797 1.51191,-17.57589 1.51191,-17.57589 l 2.45684,-0.85045 c 0,0 -0.36177,-0.27202 0.2052,1.33438 0.56697,1.6064 1.02322,1.68943 0.83424,2.82336 -0.18899,1.13393 -0.18899,3.30729 -0.18899,3.30729 l 0.66146,2.26786 3.49628,-2.83483 0.85044,1.79539 c 0,0 0.66146,0.47247 0.56697,2.36235 -0.0945,1.88988 -0.75596,4.15774 -0.75596,4.15774 l 0.18899,2.55134 c 0,0 2.36235,-4.8192 3.2128,-6.04762 0.85045,-1.22842 1.88988,-2.74033 2.74033,-2.92931 0.85044,-0.18899 1.13393,-0.37798 1.22842,0.56696 0.0945,0.94494 -0.47247,2.55134 -0.56697,3.2128 -0.0945,0.66146 -0.66145,3.30729 -0.66145,3.30729 v 1.88988 c 0,0 3.40178,-5.38616 4.7247,-6.80357 1.32292,-1.41741 1.5119,-1.88988 2.07887,-1.98438 0.56696,-0.0945 1.5119,-0.18898 1.5119,0.37798 0,0.56697 -0.47247,2.55134 -0.47247,2.55134 l -0.47247,2.64583 -0.0945,2.36235 1.03943,0.85045 2.17337,-0.47247 c 0,0 -0.0945,1.03943 1.32291,-1.32292 1.41741,-2.36235 3.68527,-6.3311 3.68527,-6.3311 l 1.13393,-6.52009 12.56771,-3.1183 1.13393,3.59077 -0.85045,2.36236 c 0,0 -0.56696,0.0945 -1.03944,-0.56697 -0.47247,-0.66146 -1.5119,-0.85045 -2.07886,-1.03943 -0.56697,-0.18899 -3.49629,0.47247 -3.87426,1.88988 -0.37798,1.41741 -0.66146,2.64583 1.03943,4.06324 1.7009,1.41741 3.11831,3.68527 3.11831,3.68527 0,0 0.85044,1.5119 0.37797,2.45684 -0.47247,0.94494 -1.98437,2.64584 -2.64583,2.55134 -0.66146,-0.0945 -3.87426,0.94494 -4.53571,-0.56696 -0.66146,-1.51191 -1.51191,-3.49628 -1.51191,-3.49628 l -2.64583,3.49628 10.67783,7.65401 3.0238,-8.12648 1.98438,-8.88244 1.70089,-2.74033 c 0,0 0.37798,1.6064 0.37798,1.88988 0,0.28348 0.66146,-1.22842 0,1.22842 -0.66146,2.45685 -0.56696,1.79539 -0.85045,3.96875 -0.28348,2.17337 -0.75595,3.02381 -0.37797,3.49628 0.37797,0.47247 -0.18899,0.94495 1.32291,0.75596 1.51191,-0.18899 1.98438,-0.56697 2.64584,-1.13393 0.66146,-0.56697 4.25223,-5.95313 4.25223,-5.95313 l 0.83898,-2.11228 -0.93348,4.19115 c 0,0 -0.28348,1.70089 0.0945,2.83482 0.37798,1.13393 0.85044,1.6064 1.32292,1.6064 0.47247,0 1.60639,-0.37797 2.55133,-1.13393 0.94494,-0.75595 2.74033,-3.02381 2.74033,-3.02381 l 1.40022,-2.83482 -0.45528,4.63021 c 0,0 -0.28348,1.22842 -0.28348,1.79539 0,0.56696 1.03944,3.1183 4.06324,0.47247 3.02381,-2.64584 5.10268,-6.23661 5.10268,-6.23661 l 1.03944,-2.45684 -10.67783,-0.37798 -0.66146,-1.51191 2.26786,-0.0945 c 0,0 -1.32292,0.47247 0.18899,0 1.5119,-0.47247 1.5119,-0.28348 2.36235,-0.85044 0.85044,-0.56697 2.45684,-2.64584 2.45684,-2.64584 l 1.22843,-2.17336"
       id="path3721"
       inkscape:connector-curvature="0"
       sodipodi:nodetypes="cccccccscscccccsccscscsccccccccccsscccccccccscccsccscccccccccccsscccssccccsccccsscscccccccccccssccsccccccccsscsccccscccccsccccccccccsccccccccsscccccccssscccscccccccccc"
       class="start"
       onload="setTime(()=&gt;this.style.strokeDashoffset=&quot;0&quot;)" />
  </g>
</svg>
